<svg version="1.1" xmlns="http://www.w3.org/2000/svg" xmlns:xlink="http://www.w3.org/1999/xlink" width="96.35304" height="36.39017" viewBox="0,0,96.35304,36.39017"><g transform="translate(-284.87553,-161.80492)"><g data-paper-data="{&quot;isPaintingLayer&quot;:true}" fill-rule="nonzero" stroke="none" stroke-linejoin="miter" stroke-miterlimit="10" stroke-dasharray="" stroke-dashoffset="0" style="mix-blend-mode: normal"><path d="M306.9001,171.67032c2.04342,2.01159 3.30811,4.78963 3.30811,7.85537c0,3.06576 -1.26468,5.8438 -3.30811,7.85537c-2.04326,2.01175 -4.86504,3.25684 -7.9791,3.25684c-3.11404,0 -5.93584,-1.24509 -7.97908,-3.25684c-2.04342,-2.01157 -3.30811,-4.78962 -3.30811,-7.85537c0,-3.06574 1.26468,-5.84378 3.30811,-7.85537c2.04324,-2.01174 4.86504,-3.25682 7.97908,-3.25682c3.11405,0 5.93584,1.24509 7.9791,3.25682z" data-paper-data="{&quot;index&quot;:null}" fill="#d5cbcb" stroke-width="0.94381" stroke-linecap="butt"/><path d="M304.29398,181.61728c2.27569,-0.40507 4.63626,-0.25292 6.93557,-0.03562c0.57487,0.05455 0.52173,0.42743 0.52025,0.72013c-0.04539,1.03807 -0.12784,2.15317 -0.65329,3.04812c-0.67587,1.15077 -1.71157,2.01696 -2.78107,2.76501c-1.10731,0.76538 -2.20773,1.38353 -3.42946,1.77173c-1.37315,0.42791 -2.83972,0.65983 -4.28466,0.69358c-1.04494,0.02423 -2.79561,0.2796 -3.14824,-0.6122c-0.36817,-0.87345 1.24331,-1.87232 1.70664,-2.91828c0.49917,-1.12668 0.29928,-2.50788 1.22864,-3.49126c0.92953,-0.98358 2.47577,-1.68669 3.90562,-1.94122z" data-paper-data="{&quot;index&quot;:null}" fill="#d5cbcb" stroke-width="0.94381" stroke-linecap="round"/><path d="M299.87705,162.04103c3.18674,-0.72704 6.93361,0.28984 9.61155,2.16014c2.67794,1.8703 3.6008,5.50772 5.18158,8.17144c0.39552,0.70359 0.67223,0.91084 0.223,0.60732c-1.88304,-1.18802 -3.68147,-2.55553 -5.40081,-3.9186c-0.43003,-0.34049 -0.39654,-1.04313 -0.06447,-0.39189c1.4072,2.63041 2.84152,5.24323 4.07275,7.95501c0.30781,0.678 0.34138,0.60994 -0.32275,0.28309c-2.65987,-1.31139 -5.01098,-3.34469 -7.81247,-4.29239c-2.99061,-1.01156 -7.94691,-1.5487 -9.33224,-1.48941c-0.77562,0.04179 2.7235,1.12818 4.0986,1.64881c1.57288,0.59503 5.72473,1.54301 4.74884,1.58784c-1.82085,0.17254 -7.55952,0.30552 -10.98098,-1.10323c-1.7526,-0.72163 -4.2529,-3.01147 -3.36781,-4.68999c1.81851,-3.39537 5.68881,-5.69395 9.3452,-6.52814z" data-paper-data="{&quot;index&quot;:null}" fill="#f9f299" stroke-width="1.2077" stroke-linecap="round"/><path d="M288.11022,177.54757c0.64789,1.21653 2.42217,1.61736 2.98009,2.87958c1.19985,2.7144 2.15348,6.62619 2.20375,8.80604c0.01951,0.83188 -1.83333,-3.74081 -2.02082,-2.89944c-0.46566,2.10147 0.72204,5.85335 0.17572,8.69831c-0.24953,1.29895 -1.73035,3.156 -2.38106,3.16302c-0.57231,-0.00703 0.00968,-2.13064 -0.13179,-3.16302c-0.09945,-0.72784 -0.15903,-1.93927 -0.65017,-2.10869c-0.42209,-0.14427 -0.65985,1.06735 -1.10707,1.49365c-0.69569,0.61012 -2.11043,1.71648 -2.2844,1.58152c-0.17379,-0.13478 0.89707,-1.5469 1.23007,-2.37227c0.27359,-0.76476 0.55283,-1.56939 0.57988,-2.37227c0.08892,-2.63322 -0.31823,-5.27364 -0.26358,-7.90756c0.07381,-3.48916 0.29188,-8.9995 0.82591,-10.71913c0.21315,-0.87582 0.10086,3.51342 0.84348,4.92026z" data-paper-data="{&quot;index&quot;:null}" fill="#f9f299" stroke-width="0.94774" stroke-linecap="round"/><path d="M289.97912,164.74901c0.74356,1.28254 1.78637,2.38115 2.0912,3.78864c0.14227,0.66167 -0.58222,1.20274 -0.69999,1.8462c-0.30554,1.20415 0.30293,1.53507 0.17499,2.37119c-0.53373,1.44843 -1.08129,2.78732 -2.10869,4.30489c-0.44379,0.63278 -1.78635,1.45106 -2.17903,0.83191c-0.94726,-1.49708 -0.72064,-3.52651 -0.77838,-5.3118c-0.00823,-1.23845 0.11147,-2.53184 0.56874,-3.67491c0.62788,-1.54731 1.70428,-2.88164 2.66867,-4.24363c0.22837,-0.33862 0.07665,-0.2331 0.26249,0.0875z" data-paper-data="{&quot;index&quot;:null}" fill="#d5cbcb" stroke-width="0.94381" stroke-linecap="round"/><path d="M309.34979,179.31915c0,0.64209 -0.26586,1.24763 -0.69534,1.67692c-0.42931,0.42947 -1.02237,0.69536 -1.67693,0.69536c-0.65456,0 -1.24765,-0.26588 -1.67693,-0.69536c-0.19562,-0.19554 -0.69384,-0.79279 -0.85628,-1.49988c-0.30356,-1.3214 0.33666,-3.20992 0.33666,-3.20992c0,0 2.87124,0.44999 3.94353,1.41343c0.65482,0.58835 0.62529,1.37601 0.62529,1.61946z" data-paper-data="{&quot;index&quot;:null}" fill="#eded41" stroke-width="0.94774" stroke-linecap="butt"/><path d="M301.28426,181.71645c-0.42931,0.42947 -1.02237,0.69536 -1.67693,0.69536c-0.65456,0 -1.24765,-0.26588 -1.67693,-0.69536c-0.42947,-0.42929 -0.69534,-1.02235 -0.69534,-1.67692c0,-0.65458 0.39133,-1.15539 0.69534,-1.67693c0.12178,-0.20192 4.304,-1.71746 4.304,-1.71746c0,0 0.71936,2.45272 0.27876,3.5187c-0.49812,1.20515 -1.2289,1.55261 -1.2289,1.55261z" data-paper-data="{&quot;index&quot;:null}" fill="#eded41" stroke-width="0.94774" stroke-linecap="butt"/><path d="M308.48975,179.88102c0.20683,0.20683 0.33475,0.49238 0.33475,0.80746c0,0.31507 -0.12792,0.60061 -0.33475,0.80744c-0.20683,0.20683 -0.49238,0.33476 -0.80746,0.33476c-0.31507,0 -0.60063,-0.12794 -0.80746,-0.33476c-0.20683,-0.20683 -0.33475,-0.49237 -0.33475,-0.80744c0,-0.31507 0.12792,-0.60063 0.33475,-0.80746c0.20683,-0.20683 0.49238,-0.33475 0.80746,-0.33475c0.31507,0 0.60063,0.12792 0.80746,0.33475z" data-paper-data="{&quot;index&quot;:null}" fill="#ffffff" stroke-width="0.94774" stroke-linecap="butt"/><path d="M299.34603,178.75884c0.20683,0.20683 0.33476,0.49238 0.33476,0.80746c0,0.31507 -0.12794,0.60063 -0.33476,0.80746c-0.20681,0.20683 -0.49237,0.33475 -0.80744,0.33475c-0.31507,0 -0.60063,-0.12792 -0.80746,-0.33475c-0.20683,-0.20683 -0.33475,-0.49238 -0.33475,-0.80746c0,-0.31507 0.12792,-0.60063 0.33475,-0.80746c0.20683,-0.20681 0.49238,-0.33475 0.80746,-0.33475c0.31507,0 0.60063,0.12794 0.80744,0.33475z" data-paper-data="{&quot;index&quot;:null}" fill="#ffffff" stroke-width="0.94774" stroke-linecap="butt"/><path d="M304.68892,183.67671c0.73715,0.70689 1.37434,1.79425 1.5815,2.94644c0.1731,0.96336 0.27625,1.98306 -0.35143,2.30359c-1.03642,0.56263 -2.22176,0.903 -3.32232,0.9604c-1.23587,0.06456 -2.40629,0.51517 -3.61878,-0.06134c-0.62785,-0.24672 -0.32034,-1.89954 -0.17572,-2.88238c0.15832,-1.06945 0.42823,-2.12223 1.12023,-2.85269c0.69183,-0.73047 1.759,-1.10711 2.70175,-1.18266c0.77143,-0.06099 1.51527,0.16423 2.06476,0.76864z" data-paper-data="{&quot;index&quot;:null}" fill="#000000" stroke-width="0.94774" stroke-linecap="round"/><path d="M297.56835,178.10147c0.40649,-0.25488 0.67625,0.14975 0.67625,0.14975c1.00404,1.50606 3.34041,-0.02874 4.43753,1.63808c1.24811,1.89622 -2.7928,3.35797 -4.02028,2.86462c-1.58712,-1.05936 -1.54756,-2.34667 -1.54756,-4.0825v-0.07143c0,0 0,-0.46889 0.45406,-0.49853z" fill="#40e2ed" stroke-width="0.5" stroke-linecap="butt"/><path d="M306.12145,181.67139c-0.00238,0.00002 -0.00476,0.00003 -0.00716,0.00003c-0.24989,0 -0.37489,-0.12489 -0.43742,-0.24984c-0.74527,-0.45228 -1.03234,-0.75687 -1.03252,-1.32159h-0.17292v-0.44273c-0.18619,-0.19279 -0.34808,-0.5126 -0.48507,-1.00743c0,0 -0.12127,-0.48507 0.3638,-0.60634c0.48507,-0.12127 0.60634,0.3638 0.60634,0.3638c0.27696,1.33087 1.74854,-0.4777 2.81667,0.79004c0.36952,0.43858 1.20888,-0.85936 1.64882,-0.49145c1.68141,1.40612 -0.82974,3.32033 -2.09342,3.32267c-0.48715,-0.0148 -0.87592,-0.14568 -1.20712,-0.35718z" fill="#40e2ed" stroke-width="0.5" stroke-linecap="butt"/><path d="M318.94286,182.77143v-6.71429h62.28571v6.71429z" fill="#ff0000" stroke-width="0" stroke-linecap="butt"/><path d="M318.8,182.77143v-6.71429h14v6.71429z" fill="#00ff52" stroke-width="0" stroke-linecap="butt"/></g></g></svg>