<svg version="1.1" xmlns="http://www.w3.org/2000/svg" xmlns:xlink="http://www.w3.org/1999/xlink" width="98.62632" height="39.98266" viewBox="0,0,98.62632,39.98266"><g transform="translate(-282.60225,-161.83437)"><g data-paper-data="{&quot;isPaintingLayer&quot;:true}" fill-rule="nonzero" stroke-linejoin="miter" stroke-miterlimit="10" stroke-dasharray="" stroke-dashoffset="0" style="mix-blend-mode: normal"><path d="M301.10855,169.57908c2.79299,0.64906 5.32187,2.35836 6.92223,4.97324c1.60037,2.6149 1.97186,5.64457 1.27902,8.42701c-0.69261,2.78251 -2.44945,5.3175 -5.10554,6.94309c-2.65608,1.62558 -5.71285,2.03662 -8.50577,1.38733c-2.79298,-0.64904 -5.32186,-2.35835 -6.92223,-4.97324c-1.60036,-2.61488 -1.97185,-5.64455 -1.27902,-8.42701c0.69259,-2.78249 2.44946,-5.31749 5.10553,-6.94306c2.65609,-1.62558 5.71285,-2.03662 8.50577,-1.38735z" data-paper-data="{&quot;index&quot;:null}" fill="#d5cbcb" stroke="none" stroke-width="0.94381" stroke-linecap="butt"/><path d="M304.07817,179.42363c1.72957,-1.53344 3.82241,-2.63592 5.897,-3.65086c0.5188,-0.25356 0.66813,0.09222 0.81966,0.34265c0.50317,0.9091 1.01495,1.90325 1.03395,2.94088c0.02425,1.33435 -0.40698,2.6138 -0.9287,3.81014c-0.54492,1.23085 -1.16083,2.33253 -2.00024,3.3014c-0.94783,1.08179 -2.07766,2.04517 -3.29248,2.82824c-0.87862,0.56614 -2.23852,1.69783 -3.00483,1.12126c-0.76998,-0.55281 0.08308,-2.246 -0.06773,-3.38c-0.16238,-1.22156 -1.05389,-2.29529 -0.77454,-3.61919c0.27939,-1.32416 1.2312,-2.73103 2.3179,-3.69453z" data-paper-data="{&quot;index&quot;:null}" fill="#d5cbcb" stroke="none" stroke-width="0.94381" stroke-linecap="round"/><path d="M290.0917,165.03204c2.33856,-2.28365 6.06523,-3.37224 9.32566,-3.17492c3.26044,0.19732 5.94637,2.81806 8.68517,4.26485c0.70464,0.39365 1.04884,0.42597 0.50724,0.4016c-2.22628,-0.03033 -4.47408,-0.25792 -6.65212,-0.52301c-0.54453,-0.06593 -0.88275,-0.68272 -0.25956,-0.3006c2.57337,1.50899 5.16068,2.98882 7.62643,4.65908c0.61647,0.41761 0.60957,0.34203 -0.12751,0.40994c-2.95326,0.26996 -6.02003,-0.237 -8.90423,0.4171c-3.07885,0.69835 -7.58665,2.82747 -8.7373,3.6012c-0.63974,0.44053 2.9119,-0.45944 4.35655,-0.7332c1.65218,-0.31355 5.6883,-1.67231 4.87933,-1.12464c-1.463,1.09768 -6.2883,4.20678 -9.94198,4.79126c-1.87156,0.29938 -5.19949,-0.34851 -5.32077,-2.24221c-0.22136,-3.84532 1.87986,-7.82622 4.56307,-10.44642z" data-paper-data="{&quot;index&quot;:null}" fill="#f9f299" stroke="none" stroke-width="1.2077" stroke-linecap="round"/><path d="M288.15,184.4006c1.18766,0.69941 2.91024,0.11509 4.04501,0.90044c2.44035,1.68887 5.29575,4.52757 6.47655,6.3606c0.45089,0.69936 -3.51647,-2.23365 -3.23718,-1.41814c0.69982,2.0355 3.67139,4.61562 4.69053,7.32737c0.46524,1.23818 0.1716,3.59514 -0.37975,3.9408c-0.49181,0.29276 -1.10397,-1.82235 -1.76355,-2.62906c-0.46477,-0.56889 -1.14797,-1.57106 -1.65532,-1.45918c-0.43533,0.09728 -0.00564,1.25483 -0.16455,1.8519c-0.27489,0.88355 -0.90403,2.56572 -1.12287,2.54143c-0.21859,-0.02424 -0.04236,-1.78769 -0.18919,-2.66551c-0.16586,-0.79511 -0.34772,-1.62718 -0.74376,-2.3261c-1.29874,-2.29239 -3.02435,-4.33196 -4.35269,-6.60705c-1.75844,-3.01456 -4.44892,-7.82836 -4.8911,-9.57387c-0.27539,-0.85829 1.92009,2.94407 3.28789,3.75636z" data-paper-data="{&quot;index&quot;:null}" fill="#f9f299" stroke="none" stroke-width="0.94774" stroke-linecap="round"/><path d="M283.06301,172.50865c1.30371,0.70577 2.76666,1.09846 3.76139,2.13983c0.46675,0.4901 0.13125,1.32979 0.3667,1.9401c0.36798,1.18656 1.05971,1.15118 1.38705,1.93113c0.30087,1.51403 0.53275,2.94186 0.44864,4.77256c-0.0482,0.77139 -0.76617,2.17016 -1.4243,1.84705c-1.58945,-0.78243 -2.45555,-2.6317 -3.43675,-4.1243c-0.65351,-1.05202 -1.22658,-2.21769 -1.43326,-3.43135c-0.27218,-1.64752 -0.05062,-3.34752 0.06096,-5.01263c0.01802,-0.40803 -0.0563,-0.23883 0.26956,-0.06239z" data-paper-data="{&quot;index&quot;:null}" fill="#d5cbcb" stroke="none" stroke-width="0.94381" stroke-linecap="round"/><path d="M318.94286,182.77144v-6.71429h62.28571v6.71429z" fill="#ff0000" stroke="none" stroke-width="0" stroke-linecap="butt"/><path d="M305.60266,181.15798c1.10001,0.38521 2.36841,1.23705 3.31324,2.38399c0.78989,0.95902 1.55768,2.01594 1.236,2.69275c-0.50891,1.1539 -1.29301,2.14343 -2.19345,2.78046c-1.01108,0.71547 -1.70896,1.81729 -3.12748,1.82224c-0.7,0.059 -1.5396,-1.90194 -2.07148,-3.04804c-0.57794,-1.24759 -1.04958,-2.53528 -0.94633,-3.69221c0.1031,-1.15685 0.76223,-2.1242 1.51597,-2.69862c0.61732,-0.46913 1.40192,-0.6121 2.27354,-0.24056z" data-paper-data="{&quot;index&quot;:null}" fill="#000000" stroke="none" stroke-width="0.94774" stroke-linecap="round"/><path d="M301.70949,180.46782l-5.20517,-1.25277" fill="none" stroke="#767070" stroke-width="1.5" stroke-linecap="round"/><path d="M300.15244,176.14489l-1.51278,6.28549" fill="none" stroke="#767070" stroke-width="1.5" stroke-linecap="round"/><path d="M301.48544,174.49161l6.48192,1.56006" fill="none" stroke="#767070" stroke-width="1.5" stroke-linecap="round"/><path d="M304.97176,172.5254l-1.22914,5.10697" fill="none" stroke="#767070" stroke-width="1.5" stroke-linecap="round"/></g></g></svg>