<svg version="1.1" xmlns="http://www.w3.org/2000/svg" xmlns:xlink="http://www.w3.org/1999/xlink" width="480" height="107.01319" viewBox="0,0,480,107.01319"><g transform="translate(0.95312,-110.98681)"><g data-paper-data="{&quot;isPaintingLayer&quot;:true}" fill-rule="nonzero" stroke-linecap="butt" stroke-linejoin="miter" stroke-miterlimit="10" stroke-dasharray="" stroke-dashoffset="0" style="mix-blend-mode: normal"><path d="M0.04689,217v-64h22l30,-41l23.08579,0.59621l35.91421,40.40379h367v64z" fill="#9966ff" stroke="#000000" stroke-width="2"/><path d="M50.73829,122.82523c1.04887,-1.39875 2.73833,-2.66917 3.84413,-3.77497c0.67915,-0.67915 2.84496,-2.86004 3.95531,-1.98636c1.77416,1.39601 1.36596,3.98575 1.43722,5.9426c0.04422,1.21439 -0.09864,2.4382 -0.28061,3.65592c1.0716,-1.00886 2.35716,-2.07629 2.67261,-2.39296c1.00919,-1.01309 1.11801,-2.19774 2.17718,-3.28127c3.03833,-3.10822 6.30646,-2.45889 10.09341,-1.57643c1.21844,0.28393 4.55328,0.26759 4.91816,1.89866c0.48937,2.18753 -1.38924,3.47218 -1.42714,5.44379c-0.01228,0.63875 0.27381,1.26163 0.61719,1.81914c-0.00924,-0.57675 0.10663,-1.14569 0.2984,-1.46569c0.89346,-1.49082 2.14316,-1.81665 3.67426,-2.02315c3.68196,-0.24012 4.0557,6.8981 4.23335,9.4844c0.04349,0.63309 0.40952,2.5047 0.09122,3.05499c-1.52596,2.63812 -6.22388,3.97198 -8.92811,4.60002c-3.21786,0.74732 -7.42908,2.56772 -10.71483,2.48844c-3.84108,-0.09268 -7.49499,-2.47317 -10.83311,-4.05123c-3.44588,-1.629 -6.63292,-3.19046 -9.73158,-5.42135c-0.61843,-0.44524 -3.01776,-1.64851 -3.24621,-2.33712c-0.73991,-2.23025 1.06732,-5.65791 1.74042,-7.78746c0.63073,-1.99553 3.51227,-3.13016 5.40872,-2.28997z" fill="#ffffff" stroke="none" stroke-width="0.5"/><text transform="translate(88.75001,185.76875) scale(0.5,0.5)" font-size="40" xml:space="preserve" fill="#ffffff" fill-rule="nonzero" stroke="none" stroke-width="1" stroke-linecap="butt" stroke-linejoin="miter" stroke-miterlimit="10" stroke-dasharray="" stroke-dashoffset="0" font-family="Pixel" font-weight="normal" text-anchor="start" style="mix-blend-mode: normal"><tspan x="0" dy="0">Somebody Wants To Join You</tspan></text></g></g></svg>