<svg version="1.1" xmlns="http://www.w3.org/2000/svg" xmlns:xlink="http://www.w3.org/1999/xlink" width="96.35304" height="36.39018" viewBox="0,0,96.35304,36.39018"><g transform="translate(-284.87553,-161.8049)"><g data-paper-data="{&quot;isPaintingLayer&quot;:true}" fill-rule="nonzero" stroke="none" stroke-linejoin="miter" stroke-miterlimit="10" stroke-dasharray="" stroke-dashoffset="0" style="mix-blend-mode: normal"><path d="M306.9001,171.67032c2.04342,2.01159 3.30811,4.78963 3.30811,7.85537c0,3.06576 -1.26468,5.8438 -3.30811,7.85537c-2.04326,2.01175 -4.86504,3.25684 -7.9791,3.25684c-3.11404,0 -5.93584,-1.24509 -7.97908,-3.25684c-2.04342,-2.01157 -3.30811,-4.78962 -3.30811,-7.85537c0,-3.06574 1.26468,-5.84378 3.30811,-7.85537c2.04324,-2.01174 4.86504,-3.25682 7.97908,-3.25682c3.11405,0 5.93584,1.24509 7.9791,3.25682z" data-paper-data="{&quot;index&quot;:null}" fill="#d5cbcb" stroke-width="0.94381" stroke-linecap="butt"/><path d="M304.29398,181.61728c2.27569,-0.40507 4.63626,-0.25292 6.93557,-0.03562c0.57487,0.05455 0.52173,0.42743 0.52025,0.72013c-0.04539,1.03807 -0.12784,2.15317 -0.65329,3.04812c-0.67587,1.15077 -1.71157,2.01696 -2.78107,2.76501c-1.10731,0.76538 -2.20773,1.38353 -3.42946,1.77173c-1.37315,0.42791 -2.83972,0.65983 -4.28466,0.69358c-1.04494,0.02423 -2.79561,0.2796 -3.14824,-0.6122c-0.36817,-0.87345 1.24331,-1.87232 1.70664,-2.91828c0.49917,-1.12668 0.29928,-2.50788 1.22864,-3.49126c0.92953,-0.98358 2.47577,-1.68669 3.90562,-1.94122z" data-paper-data="{&quot;index&quot;:null}" fill="#d5cbcb" stroke-width="0.94381" stroke-linecap="round"/><path d="M299.87705,162.04102c3.18674,-0.72704 6.93361,0.28984 9.61155,2.16014c2.67794,1.8703 3.6008,5.50772 5.18158,8.17144c0.39552,0.70359 0.67223,0.91084 0.223,0.60732c-1.88304,-1.18802 -3.68147,-2.55553 -5.40081,-3.9186c-0.43003,-0.34049 -0.39654,-1.04313 -0.06447,-0.39189c1.4072,2.63041 2.84152,5.24323 4.07275,7.95501c0.30781,0.678 0.34138,0.60994 -0.32275,0.28309c-2.65987,-1.31139 -5.01098,-3.34469 -7.81247,-4.29239c-2.99061,-1.01156 -7.94691,-1.5487 -9.33224,-1.48941c-0.77562,0.04179 2.7235,1.12818 4.0986,1.64881c1.57288,0.59503 5.72473,1.54301 4.74884,1.58784c-1.82085,0.17254 -7.55952,0.30552 -10.98098,-1.10323c-1.7526,-0.72163 -4.2529,-3.01147 -3.36781,-4.68999c1.81851,-3.39537 5.68881,-5.69395 9.3452,-6.52814z" data-paper-data="{&quot;index&quot;:null}" fill="#f9f299" stroke-width="1.2077" stroke-linecap="round"/><path d="M288.11022,177.54757c0.64789,1.21653 2.42217,1.61736 2.98009,2.87958c1.19985,2.7144 2.15348,6.62619 2.20375,8.80604c0.01951,0.83188 -1.83333,-3.74081 -2.02082,-2.89944c-0.46566,2.10147 0.72204,5.85335 0.17572,8.69831c-0.24953,1.29895 -1.73035,3.156 -2.38106,3.16302c-0.57231,-0.00703 0.00968,-2.13064 -0.13179,-3.16302c-0.09945,-0.72784 -0.15903,-1.93927 -0.65017,-2.10869c-0.42209,-0.14427 -0.65985,1.06735 -1.10707,1.49365c-0.69569,0.61012 -2.11043,1.71648 -2.2844,1.58152c-0.17379,-0.13478 0.89707,-1.5469 1.23007,-2.37227c0.27359,-0.76476 0.55283,-1.56939 0.57988,-2.37227c0.08892,-2.63322 -0.31823,-5.27364 -0.26358,-7.90756c0.07381,-3.48916 0.29188,-8.9995 0.82591,-10.71913c0.21315,-0.87582 0.10086,3.51342 0.84348,4.92026z" data-paper-data="{&quot;index&quot;:null}" fill="#f9f299" stroke-width="0.94774" stroke-linecap="round"/><path d="M289.97912,164.74901c0.74356,1.28254 1.78637,2.38115 2.0912,3.78864c0.14227,0.66167 -0.58222,1.20274 -0.69999,1.8462c-0.30554,1.20415 0.30293,1.53507 0.17499,2.37119c-0.53373,1.44843 -1.08129,2.78732 -2.10869,4.30489c-0.44379,0.63278 -1.78635,1.45106 -2.17903,0.83191c-0.94726,-1.49708 -0.72064,-3.52651 -0.77838,-5.3118c-0.00823,-1.23845 0.11147,-2.53184 0.56874,-3.67491c0.62788,-1.54731 1.70428,-2.88164 2.66867,-4.24363c0.22837,-0.33862 0.07665,-0.2331 0.26249,0.0875z" data-paper-data="{&quot;index&quot;:null}" fill="#d5cbcb" stroke-width="0.94381" stroke-linecap="round"/><path d="M309.34979,179.31915c0,0.64209 -0.26586,1.24763 -0.69534,1.67692c-0.42931,0.42947 -1.02237,0.69536 -1.67693,0.69536c-0.65456,0 -1.24765,-0.26588 -1.67693,-0.69536c-0.19562,-0.19554 -0.69384,-0.79279 -0.85628,-1.49988c-0.30356,-1.3214 0.33666,-3.20992 0.33666,-3.20992c0,0 2.87124,0.44999 3.94353,1.41343c0.65482,0.58835 0.62529,1.37601 0.62529,1.61946z" data-paper-data="{&quot;index&quot;:null}" fill="#00b5ff" stroke-width="0.94774" stroke-linecap="butt"/><path d="M301.28426,181.71645c-0.42931,0.42947 -1.02237,0.69536 -1.67693,0.69536c-0.65456,0 -1.24765,-0.26588 -1.67693,-0.69536c-0.42947,-0.42929 -0.69534,-1.02235 -0.69534,-1.67692c0,-0.65458 0.39133,-1.15539 0.69534,-1.67693c0.12178,-0.20192 4.304,-1.71746 4.304,-1.71746c0,0 0.71936,2.45272 0.27876,3.5187c-0.49812,1.20515 -1.2289,1.55261 -1.2289,1.55261z" data-paper-data="{&quot;index&quot;:null}" fill="#00b5ff" stroke-width="0.94774" stroke-linecap="butt"/><path d="M318.94286,182.77143v-6.71429h62.28571v6.71429z" fill="#ff0000" stroke-width="0" stroke-linecap="butt"/><path d="M318.8,182.77143v-6.71429h2.00001v6.71429z" fill="#00ff52" stroke-width="0" stroke-linecap="butt"/><path d="M300.0107,182.69641c-0.09371,0.09371 -0.18741,0.13774 -0.27454,0.15185c0.06425,1.65743 0.50181,4.08153 -0.03325,5.50985c-0.47962,1.28033 -1.84155,1.18553 -1.83148,2.55617v0.41539l0.29504,0.1374c0,0 0.44721,0.22361 0.22361,0.67082c-0.22361,0.44721 -0.67082,0.22361 -0.67082,0.22361l-0.18338,-0.105c-1.25806,-0.32072 -2.54602,-0.84475 -3.76858,-1.30262c0,0 -0.46816,-0.17556 -0.2926,-0.64373c0.05201,-0.1387 0.12971,-0.2209 0.21331,-0.2679c0.0225,-0.03076 0.03937,-0.04809 0.03937,-0.04809l0.24476,-0.23946c0.97057,-1.44457 1.8389,-3.75266 1.76019,-5.49361c-0.03352,-0.74131 -1.09661,-0.42103 -1.00258,-1.38099c0.06381,-0.65142 1.38542,-1.50861 2.27565,-2.08278c-0.01046,-0.11401 0.02262,-0.24673 0.15534,-0.37945c0.21707,-0.21707 0.43413,-0.16759 0.56938,-0.09705c0.13441,-0.06402 0.39897,-0.13444 0.61275,0.1506c0.11908,0.15877 0.12787,0.30178 0.09517,0.41653c0.38831,0.26703 0.81423,0.4888 1.21075,0.75315l0.36192,0.34819c0,0 0.35355,0.35355 0,0.70711z" fill="#00b5ff" stroke-width="0.5" stroke-linecap="butt"/><path d="M305.94286,180.84286l0.02244,0.01472c0.7541,-0.18631 1.48565,-0.29882 2.26328,-0.30043c0,0 0.5,0 0.5,0.5c0,0.09406 -0.01769,0.17043 -0.04643,0.23242c0.18624,0.07202 0.27935,0.25825 0.27935,0.25825c0.69808,1.41133 1.57274,1.03434 2.3979,2.23275c1.21957,1.77123 -1.83698,4.32147 -3.36727,4.63128l-0.6207,0.00243c0,0 -0.5,0 -0.5,-0.5c0,-0.12759 0.03256,-0.22263 0.08106,-0.29341l-0.31399,-0.50162c1.01505,-2.03009 -1.1188,-3.4525 -1.74783,-5.63903c0,0 -0.13736,-0.48076 0.3434,-0.61812c0.19234,-0.05496 0.32972,-0.01097 0.42533,0.06158c0.13509,-0.08082 0.28346,-0.08082 0.28346,-0.08082z" fill="#00b5ff" stroke-width="0.5" stroke-linecap="butt"/><path d="M304.68892,183.89238c0.73715,0.90278 1.37434,2.29147 1.5815,3.76295c0.1731,1.23032 0.27625,2.5326 -0.35143,2.94195c-1.03642,0.71854 -2.22176,1.15324 -3.32232,1.22654c-1.23587,0.08245 -2.40629,0.65793 -3.61878,-0.07834c-0.62785,-0.31509 -0.32034,-2.42593 -0.17572,-3.68113c0.15832,-1.36581 0.42823,-2.71033 1.12023,-3.64322c0.69183,-0.9329 1.759,-1.41391 2.70175,-1.51039c0.77143,-0.07789 1.51527,0.20974 2.06476,0.98164z" data-paper-data="{&quot;index&quot;:null}" fill="#000000" stroke-width="0.94774" stroke-linecap="round"/></g></g></svg>