<svg version="1.1" xmlns="http://www.w3.org/2000/svg" xmlns:xlink="http://www.w3.org/1999/xlink" width="96.35304" height="36.39017" viewBox="0,0,96.35304,36.39017"><g transform="translate(-284.87553,-161.80491)"><g data-paper-data="{&quot;isPaintingLayer&quot;:true}" fill-rule="nonzero" stroke="none" stroke-linejoin="miter" stroke-miterlimit="10" stroke-dasharray="" stroke-dashoffset="0" style="mix-blend-mode: normal"><path d="M306.9001,171.67032c2.04342,2.01159 3.30811,4.78963 3.30811,7.85537c0,3.06576 -1.26468,5.8438 -3.30811,7.85537c-2.04326,2.01175 -4.86504,3.25684 -7.9791,3.25684c-3.11404,0 -5.93584,-1.24509 -7.97908,-3.25684c-2.04342,-2.01157 -3.30811,-4.78962 -3.30811,-7.85537c0,-3.06574 1.26468,-5.84378 3.30811,-7.85537c2.04324,-2.01174 4.86504,-3.25682 7.97908,-3.25682c3.11405,0 5.93584,1.24509 7.9791,3.25682z" data-paper-data="{&quot;index&quot;:null}" fill="#d5cbcb" stroke-width="0.94381" stroke-linecap="butt"/><path d="M304.29398,181.61728c2.27569,-0.40507 4.63626,-0.25292 6.93557,-0.03562c0.57487,0.05455 0.52173,0.42743 0.52025,0.72013c-0.04539,1.03807 -0.12784,2.15317 -0.65329,3.04812c-0.67587,1.15077 -1.71157,2.01696 -2.78107,2.76501c-1.10731,0.76538 -2.20773,1.38353 -3.42946,1.77173c-1.37315,0.42791 -2.83972,0.65983 -4.28466,0.69358c-1.04494,0.02423 -2.79561,0.2796 -3.14824,-0.6122c-0.36817,-0.87345 1.24331,-1.87232 1.70664,-2.91828c0.49917,-1.12668 0.29928,-2.50788 1.22864,-3.49126c0.92953,-0.98358 2.47577,-1.68669 3.90562,-1.94122z" data-paper-data="{&quot;index&quot;:null}" fill="#d5cbcb" stroke-width="0.94381" stroke-linecap="round"/><path d="M299.87705,162.04103c3.18674,-0.72704 6.93361,0.28984 9.61155,2.16014c2.67794,1.8703 3.6008,5.50772 5.18158,8.17144c0.39552,0.70359 0.67223,0.91084 0.223,0.60732c-1.88304,-1.18802 -3.68147,-2.55553 -5.40081,-3.9186c-0.43003,-0.34049 -0.39654,-1.04313 -0.06447,-0.39189c1.4072,2.63041 2.84152,5.24323 4.07275,7.95501c0.30781,0.678 0.34138,0.60994 -0.32275,0.28309c-2.65987,-1.31139 -5.01098,-3.34469 -7.81247,-4.29239c-2.99061,-1.01156 -7.94691,-1.5487 -9.33224,-1.48941c-0.77562,0.04179 2.7235,1.12818 4.0986,1.64881c1.57288,0.59503 5.72473,1.54301 4.74884,1.58784c-1.82085,0.17254 -7.55952,0.30552 -10.98098,-1.10323c-1.7526,-0.72163 -4.2529,-3.01147 -3.36781,-4.68999c1.81851,-3.39537 5.68881,-5.69395 9.3452,-6.52814z" data-paper-data="{&quot;index&quot;:null}" fill="#f9f299" stroke-width="1.2077" stroke-linecap="round"/><path d="M288.11022,177.54757c0.64789,1.21653 2.42217,1.61736 2.98009,2.87958c1.19985,2.7144 2.15348,6.62619 2.20375,8.80604c0.01951,0.83188 -1.83333,-3.74081 -2.02082,-2.89944c-0.46566,2.10147 0.72204,5.85335 0.17572,8.69831c-0.24953,1.29895 -1.73035,3.156 -2.38106,3.16302c-0.57231,-0.00703 0.00968,-2.13064 -0.13179,-3.16302c-0.09945,-0.72784 -0.15903,-1.93927 -0.65017,-2.10869c-0.42209,-0.14427 -0.65985,1.06735 -1.10707,1.49365c-0.69569,0.61012 -2.11043,1.71648 -2.2844,1.58152c-0.17379,-0.13478 0.89707,-1.5469 1.23007,-2.37227c0.27359,-0.76476 0.55283,-1.56939 0.57988,-2.37227c0.08892,-2.63322 -0.31823,-5.27364 -0.26358,-7.90756c0.07381,-3.48916 0.29188,-8.9995 0.82591,-10.71913c0.21315,-0.87582 0.10086,3.51342 0.84348,4.92026z" data-paper-data="{&quot;index&quot;:null}" fill="#f9f299" stroke-width="0.94774" stroke-linecap="round"/><path d="M289.90769,164.74901c0.74356,1.28254 1.78637,2.38115 2.0912,3.78864c0.14227,0.66167 -0.58222,1.20274 -0.69999,1.8462c-0.30554,1.20415 0.30293,1.53507 0.17499,2.37119c-0.53373,1.44843 -1.08129,2.78732 -2.10869,4.30489c-0.44379,0.63278 -1.78635,1.45106 -2.17903,0.83191c-0.94726,-1.49708 -0.72064,-3.52651 -0.77838,-5.3118c-0.00823,-1.23845 0.11147,-2.53184 0.56874,-3.67491c0.62788,-1.54731 1.70428,-2.88164 2.66867,-4.24363c0.22837,-0.33862 0.07665,-0.2331 0.26249,0.0875z" data-paper-data="{&quot;index&quot;:null}" fill="#d5cbcb" stroke-width="0.94381" stroke-linecap="round"/><path d="M308.65445,177.71365c0.60096,0.04534 0.69534,1.03483 0.69534,1.67693c0,0.64209 -0.26586,1.24763 -0.69534,1.67692c-0.42931,0.42947 -1.02237,0.69536 -1.67693,0.69536c-0.65456,0 -1.24765,-0.26588 -1.67693,-0.69536c-0.42947,-0.42929 -0.56705,-1.08719 -0.69534,-1.67692c-0.03426,-0.17943 -0.11299,-0.06608 0.17572,-0.17574c1.29596,-0.54649 2.53588,-1.5968 3.87349,-1.5012z" data-paper-data="{&quot;index&quot;:null}" fill="#eded41" stroke-width="0.94774" stroke-linecap="butt"/><path d="M298.37726,177.93084c1.2907,0.54 2.78821,1.00759 3.60234,2.10869c0.35723,0.4864 -0.26586,1.24763 -0.69534,1.67692c-0.42931,0.42947 -1.02237,0.69536 -1.67693,0.69536c-0.65456,0 -1.24765,-0.26588 -1.67693,-0.69536c-0.42947,-0.42929 -0.69534,-1.02235 -0.69534,-1.67692c0,-0.65458 0.39133,-1.15539 0.69534,-1.67693c0.12178,-0.20192 0.13759,-0.55424 0.44686,-0.43175z" data-paper-data="{&quot;index&quot;:null}" fill="#eded41" stroke-width="0.94774" stroke-linecap="butt"/><path d="M308.8469,179.88102c0.20683,0.20683 0.33475,0.49238 0.33475,0.80746c0,0.31507 -0.12792,0.60061 -0.33475,0.80744c-0.20683,0.20683 -0.49238,0.33476 -0.80746,0.33476c-0.31507,0 -0.60063,-0.12794 -0.80746,-0.33476c-0.20683,-0.20683 -0.33475,-0.49237 -0.33475,-0.80744c0,-0.31507 0.12792,-0.60063 0.33475,-0.80746c0.20683,-0.20683 0.49238,-0.33475 0.80746,-0.33475c0.31507,0 0.60063,0.12792 0.80746,0.33475z" data-paper-data="{&quot;index&quot;:null}" fill="#ffffff" stroke-width="0.94774" stroke-linecap="butt"/><path d="M299.34603,178.75884c0.20683,0.20683 0.33476,0.49238 0.33476,0.80746c0,0.31507 -0.12794,0.60063 -0.33476,0.80746c-0.20681,0.20683 -0.49237,0.33475 -0.80744,0.33475c-0.31507,0 -0.60063,-0.12792 -0.80746,-0.33475c-0.20683,-0.20683 -0.33475,-0.49238 -0.33475,-0.80746c0,-0.31507 0.12792,-0.60063 0.33475,-0.80746c0.20683,-0.20681 0.49238,-0.33475 0.80746,-0.33475c0.31507,0 0.60063,0.12794 0.80744,0.33475z" data-paper-data="{&quot;index&quot;:null}" fill="#ffffff" stroke-width="0.94774" stroke-linecap="butt"/><path d="M304.68892,183.43222c0.73715,0.48482 1.37434,1.23059 1.5815,2.02082c0.1731,0.66072 0.27625,1.80099 -0.35143,2.02082c-1.03642,0.38588 -2.15033,-0.6544 -3.25089,-0.61503c-1.23587,0.04428 -2.47772,1.18615 -3.69021,0.79075c-0.62785,-0.16921 -0.32034,-1.3028 -0.17572,-1.97688c0.15832,-0.73348 0.42823,-1.45553 1.12023,-1.95652c0.69183,-0.50099 1.759,-0.75931 2.70175,-0.81113c0.77143,-0.04183 1.51527,0.11264 2.06476,0.52717z" data-paper-data="{&quot;index&quot;:null}" fill="#ffffff" stroke-width="0.94774" stroke-linecap="round"/><path d="M318.94286,182.77143v-6.71429h62.28571v6.71429z" fill="#ff0000" stroke-width="0" stroke-linecap="butt"/><path d="M318.8,182.77143v-6.71429h48.57142v6.71429z" fill="#00ff52" stroke-width="0" stroke-linecap="butt"/></g></g></svg>